<?xml version="1.0" encoding="UTF-8"?>
<svg id="Layer_1" data-name="Layer 1" xmlns="http://www.w3.org/2000/svg" xmlns:xlink="http://www.w3.org/1999/xlink" viewBox="0 0 1080 1080">
  <defs>
    <style>
      .cls-1 {
        fill: #9b4a39;
      }

      .cls-2 {
        fill: #c49da2;
      }

      .cls-3 {
        stroke: #66261c;
        stroke-miterlimit: 10;
        stroke-width: 8px;
      }

      .cls-3, .cls-4 {
        fill: none;
      }

      .cls-5 {
        clip-path: url(#clippath-1);
      }

      .cls-6 {
        clip-path: url(#clippath);
      }
    </style>
    <clipPath id="clippath">
      <rect class="cls-4" x="-1140" width="1080" height="1080"/>
    </clipPath>
    <clipPath id="clippath-1">
      <rect class="cls-4" width="1080" height="1080"/>
    </clipPath>
  </defs>
  <g class="cls-6">
    <g>
      <g>
        <path class="cls-3" d="M170.05,47.98l-55.48-28.16c-1.83-.93-4.01-.92-5.84.03l-53.96,28.14c-2.18,1.14-3.54,3.4-3.54,5.91v50.75c0,2.18,1.05,4.22,2.8,5.45l24.63,17.4c1.09.77,2.37,1.18,3.69,1.18h84.81c3.58,0,6.49-2.97,6.49-6.63V53.92c0-2.54-1.38-4.81-3.6-5.94Z"/>
        <path class="cls-3" d="M-14,156.01l55.48,28.16c1.83.93,4.01.92,5.84-.03l53.96-28.14c2.18-1.14,3.54-3.4,3.54-5.91v-50.75c0-2.18-1.05-4.22-2.8-5.45l-24.63-17.4c-1.09-.77-2.37-1.18-3.69-1.18H-11.11c-3.58,0-6.49,2.97-6.49,6.63v68.12c0,2.54,1.38,4.81,3.6,5.94Z"/>
        <path class="cls-3" d="M132.13,194.12l28.16-55.48c.93-1.83.92-4.01-.03-5.84l-28.14-53.96c-1.14-2.18-3.4-3.54-5.91-3.54h-50.75c-2.18,0-4.22,1.05-5.45,2.8l-17.4,24.63c-.77,1.09-1.18,2.37-1.18,3.69v84.81c0,3.58,2.97,6.49,6.63,6.49h68.12c2.54,0,4.81-1.38,5.94-3.6Z"/>
        <path class="cls-3" d="M24.09,10.06L-4.06,65.54c-.93,1.83-.92,4.01.03,5.84l28.14,53.96c1.14,2.18,3.4,3.54,5.91,3.54h50.75c2.18,0,4.22-1.05,5.45-2.8l17.4-24.63c.77-1.09,1.18-2.37,1.18-3.69V12.94c0-3.58-2.97-6.49-6.63-6.49H30.03c-2.54,0-4.81,1.38-5.94,3.6Z"/>
      </g>
      <g>
        <path class="cls-3" d="M361.24,47.98l-55.48-28.16c-1.83-.93-4.01-.92-5.84.03l-53.96,28.14c-2.18,1.14-3.54,3.4-3.54,5.91v50.75c0,2.18,1.05,4.22,2.8,5.45l24.63,17.4c1.09.77,2.37,1.18,3.69,1.18h84.81c3.58,0,6.49-2.97,6.49-6.63V53.92c0-2.54-1.38-4.81-3.6-5.94Z"/>
        <path class="cls-3" d="M177.2,156.01l55.48,28.16c1.83.93,4.01.92,5.84-.03l53.96-28.14c2.18-1.14,3.54-3.4,3.54-5.91v-50.75c0-2.18-1.05-4.22-2.8-5.45l-24.63-17.4c-1.09-.77-2.37-1.18-3.69-1.18h-84.81c-3.58,0-6.49,2.97-6.49,6.63v68.12c0,2.54,1.38,4.81,3.6,5.94Z"/>
        <path class="cls-3" d="M323.32,194.12l28.16-55.48c.93-1.83.92-4.01-.03-5.84l-28.14-53.96c-1.14-2.18-3.4-3.54-5.91-3.54h-50.75c-2.18,0-4.22,1.05-5.45,2.8l-17.4,24.63c-.77,1.09-1.18,2.37-1.18,3.69v84.81c0,3.58,2.97,6.49,6.63,6.49h68.12c2.54,0,4.81-1.38,5.94-3.6Z"/>
        <path class="cls-3" d="M215.29,10.06l-28.16,55.48c-.93,1.83-.92,4.01.03,5.84l28.14,53.96c1.14,2.18,3.4,3.54,5.91,3.54h50.75c2.18,0,4.22-1.05,5.45-2.8l17.4-24.63c.77-1.09,1.18-2.37,1.18-3.69V12.94c0-3.58-2.97-6.49-6.63-6.49h-68.12c-2.54,0-4.81,1.38-5.94,3.6Z"/>
      </g>
      <g>
        <path class="cls-3" d="M170.05,239.62l-55.48-28.16c-1.83-.93-4.01-.92-5.84.03l-53.96,28.14c-2.18,1.14-3.54,3.4-3.54,5.91v50.75c0,2.18,1.05,4.22,2.8,5.45l24.63,17.4c1.09.77,2.37,1.18,3.69,1.18h84.81c3.58,0,6.49-2.97,6.49-6.63v-68.12c0-2.54-1.38-4.81-3.6-5.94Z"/>
        <path class="cls-3" d="M-14,347.65l55.48,28.16c1.83.93,4.01.92,5.84-.03l53.96-28.14c2.18-1.14,3.54-3.4,3.54-5.91v-50.75c0-2.18-1.05-4.22-2.8-5.45l-24.63-17.4c-1.09-.77-2.37-1.18-3.69-1.18H-11.11c-3.58,0-6.49,2.97-6.49,6.63v68.12c0,2.54,1.38,4.81,3.6,5.94Z"/>
        <path class="cls-3" d="M132.13,385.76l28.16-55.48c.93-1.83.92-4.01-.03-5.84l-28.14-53.96c-1.14-2.18-3.4-3.54-5.91-3.54h-50.75c-2.18,0-4.22,1.05-5.45,2.8l-17.4,24.63c-.77,1.09-1.18,2.37-1.18,3.69v84.81c0,3.58,2.97,6.49,6.63,6.49h68.12c2.54,0,4.81-1.38,5.94-3.6Z"/>
        <path class="cls-3" d="M24.09,201.69l-28.16,55.48c-.93,1.83-.92,4.01.03,5.84l28.14,53.96c1.14,2.18,3.4,3.54,5.91,3.54h50.75c2.18,0,4.22-1.05,5.45-2.8l17.4-24.63c.77-1.09,1.18-2.37,1.18-3.69v-84.81c0-3.58-2.97-6.49-6.63-6.49H30.03c-2.54,0-4.81,1.38-5.94,3.6Z"/>
      </g>
      <g>
        <path class="cls-3" d="M361.24,239.62l-55.48-28.16c-1.83-.93-4.01-.92-5.84.03l-53.96,28.14c-2.18,1.14-3.54,3.4-3.54,5.91v50.75c0,2.18,1.05,4.22,2.8,5.45l24.63,17.4c1.09.77,2.37,1.18,3.69,1.18h84.81c3.58,0,6.49-2.97,6.49-6.63v-68.12c0-2.54-1.38-4.81-3.6-5.94Z"/>
        <path class="cls-3" d="M177.2,347.65l55.48,28.16c1.83.93,4.01.92,5.84-.03l53.96-28.14c2.18-1.14,3.54-3.4,3.54-5.91v-50.75c0-2.18-1.05-4.22-2.8-5.45l-24.63-17.4c-1.09-.77-2.37-1.18-3.69-1.18h-84.81c-3.58,0-6.49,2.97-6.49,6.63v68.12c0,2.54,1.38,4.81,3.6,5.94Z"/>
        <path class="cls-3" d="M323.32,385.76l28.16-55.48c.93-1.83.92-4.01-.03-5.84l-28.14-53.96c-1.14-2.18-3.4-3.54-5.91-3.54h-50.75c-2.18,0-4.22,1.05-5.45,2.8l-17.4,24.63c-.77,1.09-1.18,2.37-1.18,3.69v84.81c0,3.58,2.97,6.49,6.63,6.49h68.12c2.54,0,4.81-1.38,5.94-3.6Z"/>
        <path class="cls-3" d="M215.29,201.69l-28.16,55.48c-.93,1.83-.92,4.01.03,5.84l28.14,53.96c1.14,2.18,3.4,3.54,5.91,3.54h50.75c2.18,0,4.22-1.05,5.45-2.8l17.4-24.63c.77-1.09,1.18-2.37,1.18-3.69v-84.81c0-3.58-2.97-6.49-6.63-6.49h-68.12c-2.54,0-4.81,1.38-5.94,3.6Z"/>
      </g>
      <g>
        <path class="cls-3" d="M170.05,431.25l-55.48-28.16c-1.83-.93-4.01-.92-5.84.03l-53.96,28.14c-2.18,1.14-3.54,3.4-3.54,5.91v50.75c0,2.18,1.05,4.22,2.8,5.45l24.63,17.4c1.09.77,2.37,1.18,3.69,1.18h84.81c3.58,0,6.49-2.97,6.49-6.63v-68.12c0-2.54-1.38-4.81-3.6-5.94Z"/>
        <path class="cls-3" d="M-14,539.29l55.48,28.16c1.83.93,4.01.92,5.84-.03l53.96-28.14c2.18-1.14,3.54-3.4,3.54-5.91v-50.75c0-2.18-1.05-4.22-2.8-5.45l-24.63-17.4c-1.09-.77-2.37-1.18-3.69-1.18H-11.11c-3.58,0-6.49,2.97-6.49,6.63v68.12c0,2.54,1.38,4.81,3.6,5.94Z"/>
        <path class="cls-3" d="M132.13,577.4l28.16-55.48c.93-1.83.92-4.01-.03-5.84l-28.14-53.96c-1.14-2.18-3.4-3.54-5.91-3.54h-50.75c-2.18,0-4.22,1.05-5.45,2.8l-17.4,24.63c-.77,1.09-1.18,2.37-1.18,3.69v84.81c0,3.58,2.97,6.49,6.63,6.49h68.12c2.54,0,4.81-1.38,5.94-3.6Z"/>
        <path class="cls-3" d="M24.09,393.33l-28.16,55.48c-.93,1.83-.92,4.01.03,5.84l28.14,53.96c1.14,2.18,3.4,3.54,5.91,3.54h50.75c2.18,0,4.22-1.05,5.45-2.8l17.4-24.63c.77-1.09,1.18-2.37,1.18-3.69v-84.81c0-3.58-2.97-6.49-6.63-6.49H30.03c-2.54,0-4.81,1.38-5.94,3.6Z"/>
      </g>
      <g>
        <path class="cls-3" d="M361.24,431.25l-55.48-28.16c-1.83-.93-4.01-.92-5.84.03l-53.96,28.14c-2.18,1.14-3.54,3.4-3.54,5.91v50.75c0,2.18,1.05,4.22,2.8,5.45l24.63,17.4c1.09.77,2.37,1.18,3.69,1.18h84.81c3.58,0,6.49-2.97,6.49-6.63v-68.12c0-2.54-1.38-4.81-3.6-5.94Z"/>
        <path class="cls-3" d="M177.2,539.29l55.48,28.16c1.83.93,4.01.92,5.84-.03l53.96-28.14c2.18-1.14,3.54-3.4,3.54-5.91v-50.75c0-2.18-1.05-4.22-2.8-5.45l-24.63-17.4c-1.09-.77-2.37-1.18-3.69-1.18h-84.81c-3.58,0-6.49,2.97-6.49,6.63v68.12c0,2.54,1.38,4.81,3.6,5.94Z"/>
        <path class="cls-3" d="M323.32,577.4l28.16-55.48c.93-1.83.92-4.01-.03-5.84l-28.14-53.96c-1.14-2.18-3.4-3.54-5.91-3.54h-50.75c-2.18,0-4.22,1.05-5.45,2.8l-17.4,24.63c-.77,1.09-1.18,2.37-1.18,3.69v84.81c0,3.58,2.97,6.49,6.63,6.49h68.12c2.54,0,4.81-1.38,5.94-3.6Z"/>
        <path class="cls-3" d="M215.29,393.33l-28.16,55.48c-.93,1.83-.92,4.01.03,5.84l28.14,53.96c1.14,2.18,3.4,3.54,5.91,3.54h50.75c2.18,0,4.22-1.05,5.45-2.8l17.4-24.63c.77-1.09,1.18-2.37,1.18-3.69v-84.81c0-3.58-2.97-6.49-6.63-6.49h-68.12c-2.54,0-4.81,1.38-5.94,3.6Z"/>
      </g>
      <g>
        <path class="cls-3" d="M170.05,622.89l-55.48-28.16c-1.83-.93-4.01-.92-5.84.03l-53.96,28.14c-2.18,1.14-3.54,3.4-3.54,5.91v50.75c0,2.18,1.05,4.22,2.8,5.45l24.63,17.4c1.09.77,2.37,1.18,3.69,1.18h84.81c3.58,0,6.49-2.97,6.49-6.63v-68.12c0-2.54-1.38-4.81-3.6-5.94Z"/>
        <path class="cls-3" d="M-14,730.93l55.48,28.16c1.83.93,4.01.92,5.84-.03l53.96-28.14c2.18-1.14,3.54-3.4,3.54-5.91v-50.75c0-2.18-1.05-4.22-2.8-5.45l-24.63-17.4c-1.09-.77-2.37-1.18-3.69-1.18H-11.11c-3.58,0-6.49,2.97-6.49,6.63v68.12c0,2.54,1.38,4.81,3.6,5.94Z"/>
        <path class="cls-3" d="M132.13,769.04l28.16-55.48c.93-1.83.92-4.01-.03-5.84l-28.14-53.96c-1.14-2.18-3.4-3.54-5.91-3.54h-50.75c-2.18,0-4.22,1.05-5.45,2.8l-17.4,24.63c-.77,1.09-1.18,2.37-1.18,3.69v84.81c0,3.58,2.97,6.49,6.63,6.49h68.12c2.54,0,4.81-1.38,5.94-3.6Z"/>
        <path class="cls-3" d="M24.09,584.97l-28.16,55.48c-.93,1.83-.92,4.01.03,5.84l28.14,53.96c1.14,2.18,3.4,3.54,5.91,3.54h50.75c2.18,0,4.22-1.05,5.45-2.8l17.4-24.63c.77-1.09,1.18-2.37,1.18-3.69v-84.81c0-3.58-2.97-6.49-6.63-6.49H30.03c-2.54,0-4.81,1.38-5.94,3.6Z"/>
      </g>
      <g>
        <path class="cls-3" d="M361.24,622.89l-55.48-28.16c-1.83-.93-4.01-.92-5.84.03l-53.96,28.14c-2.18,1.14-3.54,3.4-3.54,5.91v50.75c0,2.18,1.05,4.22,2.8,5.45l24.63,17.4c1.09.77,2.37,1.18,3.69,1.18h84.81c3.58,0,6.49-2.97,6.49-6.63v-68.12c0-2.54-1.38-4.81-3.6-5.94Z"/>
        <path class="cls-3" d="M177.2,730.93l55.48,28.16c1.83.93,4.01.92,5.84-.03l53.96-28.14c2.18-1.14,3.54-3.4,3.54-5.91v-50.75c0-2.18-1.05-4.22-2.8-5.45l-24.63-17.4c-1.09-.77-2.37-1.18-3.69-1.18h-84.81c-3.58,0-6.49,2.97-6.49,6.63v68.12c0,2.54,1.38,4.81,3.6,5.94Z"/>
        <path class="cls-3" d="M323.32,769.04l28.16-55.48c.93-1.83.92-4.01-.03-5.84l-28.14-53.96c-1.14-2.18-3.4-3.54-5.91-3.54h-50.75c-2.18,0-4.22,1.05-5.45,2.8l-17.4,24.63c-.77,1.09-1.18,2.37-1.18,3.69v84.81c0,3.58,2.97,6.49,6.63,6.49h68.12c2.54,0,4.81-1.38,5.94-3.6Z"/>
        <path class="cls-3" d="M215.29,584.97l-28.16,55.48c-.93,1.83-.92,4.01.03,5.84l28.14,53.96c1.14,2.18,3.4,3.54,5.91,3.54h50.75c2.18,0,4.22-1.05,5.45-2.8l17.4-24.63c.77-1.09,1.18-2.37,1.18-3.69v-84.81c0-3.58-2.97-6.49-6.63-6.49h-68.12c-2.54,0-4.81,1.38-5.94,3.6Z"/>
      </g>
    </g>
    <g>
      <g>
        <path class="cls-3" d="M170.05,814.2l-55.48-28.16c-1.83-.93-4.01-.92-5.84.03l-53.96,28.14c-2.18,1.14-3.54,3.4-3.54,5.91v50.75c0,2.18,1.05,4.22,2.8,5.45l24.63,17.4c1.09.77,2.37,1.18,3.69,1.18h84.81c3.58,0,6.49-2.97,6.49-6.63v-68.12c0-2.54-1.38-4.81-3.6-5.94Z"/>
        <path class="cls-3" d="M-14,922.23l55.48,28.16c1.83.93,4.01.92,5.84-.03l53.96-28.14c2.18-1.14,3.54-3.4,3.54-5.91v-50.75c0-2.18-1.05-4.22-2.8-5.45l-24.63-17.4c-1.09-.77-2.37-1.18-3.69-1.18H-11.11c-3.58,0-6.49,2.97-6.49,6.63v68.12c0,2.54,1.38,4.81,3.6,5.94Z"/>
        <path class="cls-3" d="M132.13,960.34l28.16-55.48c.93-1.83.92-4.01-.03-5.84l-28.14-53.96c-1.14-2.18-3.4-3.54-5.91-3.54h-50.75c-2.18,0-4.22,1.05-5.45,2.8l-17.4,24.63c-.77,1.09-1.18,2.37-1.18,3.69v84.81c0,3.58,2.97,6.49,6.63,6.49h68.12c2.54,0,4.81-1.38,5.94-3.6Z"/>
        <path class="cls-3" d="M24.09,776.28l-28.16,55.48c-.93,1.83-.92,4.01.03,5.84l28.14,53.96c1.14,2.18,3.4,3.54,5.91,3.54h50.75c2.18,0,4.22-1.05,5.45-2.8l17.4-24.63c.77-1.09,1.18-2.37,1.18-3.69v-84.81c0-3.58-2.97-6.49-6.63-6.49H30.03c-2.54,0-4.81,1.38-5.94,3.6Z"/>
      </g>
      <g>
        <path class="cls-3" d="M361.24,814.2l-55.48-28.16c-1.83-.93-4.01-.92-5.84.03l-53.96,28.14c-2.18,1.14-3.54,3.4-3.54,5.91v50.75c0,2.18,1.05,4.22,2.8,5.45l24.63,17.4c1.09.77,2.37,1.18,3.69,1.18h84.81c3.58,0,6.49-2.97,6.49-6.63v-68.12c0-2.54-1.38-4.81-3.6-5.94Z"/>
        <path class="cls-3" d="M177.2,922.23l55.48,28.16c1.83.93,4.01.92,5.84-.03l53.96-28.14c2.18-1.14,3.54-3.4,3.54-5.91v-50.75c0-2.18-1.05-4.22-2.8-5.45l-24.63-17.4c-1.09-.77-2.37-1.18-3.69-1.18h-84.81c-3.58,0-6.49,2.97-6.49,6.63v68.12c0,2.54,1.38,4.81,3.6,5.94Z"/>
        <path class="cls-3" d="M323.32,960.34l28.16-55.48c.93-1.83.92-4.01-.03-5.84l-28.14-53.96c-1.14-2.18-3.4-3.54-5.91-3.54h-50.75c-2.18,0-4.22,1.05-5.45,2.8l-17.4,24.63c-.77,1.09-1.18,2.37-1.18,3.69v84.81c0,3.58,2.97,6.49,6.63,6.49h68.12c2.54,0,4.81-1.38,5.94-3.6Z"/>
        <path class="cls-3" d="M215.29,776.28l-28.16,55.48c-.93,1.83-.92,4.01.03,5.84l28.14,53.96c1.14,2.18,3.4,3.54,5.91,3.54h50.75c2.18,0,4.22-1.05,5.45-2.8l17.4-24.63c.77-1.09,1.18-2.37,1.18-3.69v-84.81c0-3.58-2.97-6.49-6.63-6.49h-68.12c-2.54,0-4.81,1.38-5.94,3.6Z"/>
      </g>
      <g>
        <path class="cls-3" d="M170.05,1005.84l-55.48-28.16c-1.83-.93-4.01-.92-5.84.03l-53.96,28.14c-2.18,1.14-3.54,3.4-3.54,5.91v50.75c0,2.18,1.05,4.22,2.8,5.45l24.63,17.4c1.09.77,2.37,1.18,3.69,1.18h84.81c3.58,0,6.49-2.97,6.49-6.63v-68.12c0-2.54-1.38-4.81-3.6-5.94Z"/>
        <path class="cls-3" d="M-14,1113.87l55.48,28.16c1.83.93,4.01.92,5.84-.03l53.96-28.14c2.18-1.14,3.54-3.4,3.54-5.91v-50.75c0-2.18-1.05-4.22-2.8-5.45l-24.63-17.4c-1.09-.77-2.37-1.18-3.69-1.18H-11.11c-3.58,0-6.49,2.97-6.49,6.63v68.12c0,2.54,1.38,4.81,3.6,5.94Z"/>
        <path class="cls-3" d="M132.13,1151.98l28.16-55.48c.93-1.83.92-4.01-.03-5.84l-28.14-53.96c-1.14-2.18-3.4-3.54-5.91-3.54h-50.75c-2.18,0-4.22,1.05-5.45,2.8l-17.4,24.63c-.77,1.09-1.18,2.37-1.18,3.69v84.81c0,3.58,2.97,6.49,6.63,6.49h68.12c2.54,0,4.81-1.38,5.94-3.6Z"/>
        <path class="cls-3" d="M24.09,967.92l-28.16,55.48c-.93,1.83-.92,4.01.03,5.84l28.14,53.96c1.14,2.18,3.4,3.54,5.91,3.54h50.75c2.18,0,4.22-1.05,5.45-2.8l17.4-24.63c.77-1.09,1.18-2.37,1.18-3.69v-84.81c0-3.58-2.97-6.49-6.63-6.49H30.03c-2.54,0-4.81,1.38-5.94,3.6Z"/>
      </g>
      <g>
        <path class="cls-3" d="M361.24,1005.84l-55.48-28.16c-1.83-.93-4.01-.92-5.84.03l-53.96,28.14c-2.18,1.14-3.54,3.4-3.54,5.91v50.75c0,2.18,1.05,4.22,2.8,5.45l24.63,17.4c1.09.77,2.37,1.18,3.69,1.18h84.81c3.58,0,6.49-2.97,6.49-6.63v-68.12c0-2.54-1.38-4.81-3.6-5.94Z"/>
        <path class="cls-3" d="M177.2,1113.87l55.48,28.16c1.83.93,4.01.92,5.84-.03l53.96-28.14c2.18-1.14,3.54-3.4,3.54-5.91v-50.75c0-2.18-1.05-4.22-2.8-5.45l-24.63-17.4c-1.09-.77-2.37-1.18-3.69-1.18h-84.81c-3.58,0-6.49,2.97-6.49,6.63v68.12c0,2.54,1.38,4.81,3.6,5.94Z"/>
        <path class="cls-3" d="M323.32,1151.98l28.16-55.48c.93-1.83.92-4.01-.03-5.84l-28.14-53.96c-1.14-2.18-3.4-3.54-5.91-3.54h-50.75c-2.18,0-4.22,1.05-5.45,2.8l-17.4,24.63c-.77,1.09-1.18,2.37-1.18,3.69v84.81c0,3.58,2.97,6.49,6.63,6.49h68.12c2.54,0,4.81-1.38,5.94-3.6Z"/>
        <path class="cls-3" d="M215.29,967.92l-28.16,55.48c-.93,1.83-.92,4.01.03,5.84l28.14,53.96c1.14,2.18,3.4,3.54,5.91,3.54h50.75c2.18,0,4.22-1.05,5.45-2.8l17.4-24.63c.77-1.09,1.18-2.37,1.18-3.69v-84.81c0-3.58-2.97-6.49-6.63-6.49h-68.12c-2.54,0-4.81,1.38-5.94,3.6Z"/>
      </g>
    </g>
  </g>
  <rect class="cls-2" width="1080" height="1080"/>
  <g class="cls-5">
    <g>
      <path class="cls-1" d="M9.47,606.06l-.17,57.08c-.01,4.78-.04,10.44.9,14.17l-1,6.49c1.89,19.31.63,37.79.28,57.05l-.82,45.2.59,21.78-1.39,39.29.04,29.74c-1.14.07-2.79.12-3.89-.65-1.38-.97-1.39-2.65-1.79-4.53-1.32,5.16-5.98,4.84-9.69,6.66l-4.46,2.18c-1.24.61-3.41-5.57-12.6-3.46-.07-1.76-.96-4.03-2.15-5.79,1.42-6.77.53-13.24.6-20.32l.41-45.39c-1.79-25.65.55-51.22.65-77.56l.2-51.72-1.11-54.55c0-6.55.22-12.34,1.4-17.97,5.87-1.98,11.56,2.12,18.38-1.78,1.42,1.72,1.7,3.14,2.52,5.99l4.84-4.31c.46,2.05.45,3.26,1.98,5.36,1.71-2.17,3.78-3.27,6.27-2.97Z"/>
      <path class="cls-1" d="M10.06,194.3l.49,20.64.35,49.52-.36,51.53-1.37,63.42.26,19.34-.72,49.54.72,21.99c-2.08-.39-2.99,1.8-3.35,3.27-2.86-.11-6.16-.57-8.9-1.56l-.12-3.22c-.02-.45-.86-.96-1.43-.95-.69.02-.65,2.81-1.31,3.15-3.32,1.71-8.37.88-11.23-2.44-2.94,2.4-3.89,5.43-5.26,8.84l-2.89-.7,1.2-27.82-.26-51.55.27-43.76.2-52.36.21-36.61-.19-41.88c-.04-8.86-.08-17.82,1.89-25.64,3.12-2.46,6.86,1.65,9.23,1.48,2.68-.19,6.44-3.47,9.86.06l2.88-3.62c1-1.26,2.8.41,4.32,1.14,1.28-.09,3.4-2.29,5.51-1.81Z"/>
      <path class="cls-1" d="M485.97,187.91c-.15,1.66,1.68,3.51,1.66,5.61l-.21,23.97c-.14,15.22.1,29.68.11,44.19l.04,49.07.23,23.41.18,32.32.11,27.22.33,12.96-.87,45.33.49,18.19c-2.16.49-4.92.87-6.84-1.59,1.74-2.13-.89-3.66-1.86-1.64l-1.02,2.59c-.48,1.22-2.41.52-2.39-.31.02-.68-.24-2.96-2.04-3.62-.68,2.78-1,4.01-2.63,4.86-3.53,1.82-5.33.76-6.58-2.71-1.82,1.23-2.49,2.7-3.73,4.96-3.11-1.7-3.37-4.47-2.58-8.12-3.5.65-2.32,3.38-2.75,4.22-.58,1.13-2.29,1.54-3.22,1.23-.03-2.53-.17-4.96-.2-8l-.23-24.3,1.06-43c.56-22.62.38-45.06.39-68.41v-36.34c1.56-8.6,1.43-17.05-.92-24.75l-.12-52.9-.44-22.1,11.99-.63c.83.71,2.18,1.71,2.72,1.19.42-.4,1.88-2.11,3.09-1.9,1.35.39,3.09,3.32,5.13,2.64,1.59-.53,3.19-2.35,4.11-4.55,2.71-.51,4.94.72,6.99.9Z"/>
      <path class="cls-1" d="M487.79,603.41c1.27,8.27,1.05,16.93.06,26.08l-.07,44.34-.11,20.48.05,24.56.44,80.29,1.43,5.26c-1.98,14.49.3,29.94.21,45.2l-.18,30.09c-1.23.23-2.84.35-4.07-.3-2.39-1.27-1.11-6.67-4.15-6.56-1.97.07-2.52,2.61-4.19,3.55-2.14,1.21-2.83-3.8-4.86-3.76-1.86.04-3.63,3.51-5.51,3.69-1.17.11-1.8-1.31-2.52-2.93-.41-.92-3.26,1.28-2.01,3.45-3.28.78-5.08-.6-7.84-.97l-.59-13.07-.72-32.59-.98-26.09.53-37.31c.2-14.09,1.3-27.42-.52-41.45-2.31-17.88-.35-34.76.86-51.69l-.18-40.14c-.05-10.93-1.99-21.36,1.68-31.13l6.83-2.98c2.69,4.38,4.96,5.72,9.78,3.93l10.5-3.91,1.87,6.87,4.21-2.9Z"/>
      <path class="cls-1" d="M418.68,600.62l2.24,12.1-1.21,46.51-.07,13.18.09,49.1-1.99,73.68,1.29,6.67-.5,47.8,1.3,13.04-.94,16.6c-1.81.34-3.82-.54-3.82-2.82l.02-6.95c-2.74,2.22-1.89,4.25-2.57,6.91l-11.21-7.65c-1.35,2.81-2.21,6.24-4.77,8.31-1.17.95-3.01-1.15-2.65-1.89.39-.81,1.19-3,.42-3.52-3.01-1.84-5.41.88-7.65,1.29l-1.16-5.13-1.65-63.85,1.77-48.73-.46-68.65,1.03-10.21.44-14.62-.56-51.8.33-10.17c.4-.22,1.36-.28,1.7.06.62.61.83,2.22.97,3.49l.31,2.76c.08.7,1.37,1.36,2.37.83.61-.33,1.07-1.73,1.44-2.79.48-1.38,1.78-1.27,2.29-.52l1.84,2.72c.5-1.98.86-3.19,1.51-3.97,1.2-1.45,3.51.52,4.69.49l9.28-.24c1.93-.05,4.03-2.54,5.89-2.03Z"/>
      <path class="cls-1" d="M351.74,603.39c1.67,22.69-.13,45.67-.21,68.51l-.13,39.18.26,51.52,1.03,39.4-1.18,33.41.51,28.37-.02,11.97c-6.23,3.06-10.96.26-16.71,2.5-.85-3.09.48-5.76-2.61-8.97-.79,3.57-.89,5.83-3.66,6.79-2.18.76-4.28,1.23-6.57-2.14l-2.65,5.65c-2.43-1.37-2.14-3.97-2.13-6.27l.11-23.59-.84-28.5.57-38.91c-1.47-15.74.33-30.88-.09-46.62l-1.27-47.94,2.51-68.6.14-16.29c3.39-1.15,5.67-4.41,10.54-1.7,4.67,2.6,9.84,2.67,14.84-.39.7,2.51,2.32,4.37,3.52,3.93l4.05-1.3Z"/>
      <path class="cls-1" d="M417.23,190.37l1.25,38.84-1.25,34.06.85,34.52-.24,25.23.22,70.35-.6,52.1.4,25.98c-1.58.09-3.62-.62-4.46-1.64-.75-.91-.03-2.59-1.01-4.64-2.82,2.81-1.77,4.74-2.79,7.94-5.55-3.37-10.15-3.57-15.8-4.03-1.22-.13-2.27-3.89-3.26-4.42l-1.89,4.63c-.55,1.34-2.41,1.46-3.57.8l-.26-5.96-1.09-50.95-.12-18.22c-.15-22.66.94-45.25.67-68.46l-.32-26.6-.78-38.13c-.41-20.11.11-40.23,1.69-61.03l-.21-11.88,6.1,2.11c1.24.47,4.73-1.58,4.98-.67l1.52,5.5c.81-1.54.89-4.86,3.42-5.74,1.17.23,2.13,3.09,1.85,4.71,2.68-.54,2.71-2.79,3.5-3.58,4.06-1.61,7.54-1.2,11.2-.82Z"/>
      <path class="cls-1" d="M147.99.55c1.94,20.37,1.25,40.46,1.34,60.42l.29,61.93-1.19,40.21.47,30.83-.86,55.91-.03,18.36c-2.56-.1-4.58-.84-7.05-2.98-1.5,3.85-4.57,5.02-9.13,3.64-1.46-.44-.79-4.1.43-5.95-3.44,2.22-5.94,3.84-10.56,5.23-.84-2.63-.16-4.87-2.23-7.41-2.15,2.47-1.72,4.7-2.97,7.49-2.56-2.64-5.32-5-8.51-5.02,3.28-20.25,3.32-40.26,3.24-61.2l-.09-23.33-.04-28.27c-.03-18.83,1.34-37.13-.39-56.04l.6-20.61-.94-50.31,1.23-22.87h36.41Z"/>
      <path class="cls-1" d="M215.08.71c1.11,5.79.39,11.33.31,17.32l-.54,44.25-.97,37.33.52,40.88-.57,35.6-.85,16.73.31,15.67c-.99,19.39-1.19,38.22-.6,57.09-.8.32-2.64.42-2.91-.38l-1.4-4.1c-2.1.97-2.09,2.99-2.51,5.09-3.24.2-4.98,2.33-7.3,3.23-.81-.59-2.45-2.95-3.46-2.79-1.01.15-2.33,1.33-3.68,2.88-2.5-3.23-5.22-4.94-8.5-3.71-2.7-5.16-2.32-10.96-2.62-17.24,1.41-18.67-.61-36.67-.76-54.58l-.32-39.97-.95-58.95.7-21.13c.15-4.53,1.14-8.03,1.13-11.92l-.09-35c-.02-9.04,1.23-17.64.35-26.56l34.71.27Z"/>
      <path class="cls-1" d="M9.34,1.37c.95,20.68-.39,42.45-.1,63.38-4.4.31-7.32-3.25-7.93-7.39-3.86-1.32-1.2,4.83-4.36,5.11-1.17.1-2.99-.98-3.89-3.25-1.39,3.35-4.23,5.51-8,6.47-1-1.58-1.59-2.51-2.93-3.66-1.83,2.14-3.95,2.87-6.35,2.38l-1.08-33.7.8-29.34H9.34Z"/>
      <path class="cls-1" d="M487.04,1.29l.34,45.22-.8,11.74-10.62,3.61c-6.12-5.85-8.22,1.46-13.16-.58-2.42-1-2.46-2.77-3.61-6.53-2.23,3.33-3.31,4.6-5.84,4.94.53-2.63-1.82-5.28-1.89-8.18l-.55-21.9.06-28.21,36.07-.12Z"/>
      <path class="cls-1" d="M351.32,1.76l.07,35.65.46,22.19c-1.37.79-3.25,1.67-3.93.97-.95-.98-.75-3.29-.98-5.23l-3.08,6.49c-1.09-1.08-1.89-2.2-2.49-2.34-1.33-.31.55,6.08-2.3,4.98-1.85-.71-1.5-5.45-4.15-5.85-5.33-.8-9.46,5.74-17.56.96l-.34-30.07c-.16-9.51-1.08-18.8,1.02-27.92l33.28.17Z"/>
      <path class="cls-1" d="M418.66,1.49l.04,20.4c1.36,14.44-1.02,28.12-.85,41.74l-18.14-3.35c-1.35-.25-3.47,1.75-4.3,1.07l-3.23-2.63-6.36,1.96.27-58.6,32.57-.58Z"/>
      <path class="cls-1" d="M147.72,805.38l1.46,68.1-1.91,104.38c-.19,10.25.32,19.26.24,28.59l-.93,72.38-36.32.04-.77-29.67-1.07-24.83c-.79-18.34-1.15-35.94-1.72-53.79-.64-19.88,1.31-38.87,2.33-58.7l-.39-28.53-1.08-35.04c-.44-14.27-1.92-27.94.25-41.61.78-.48,1.5-2.87,3.27-1.91.04.73.55,3.02,1.16,3.18.85.22,2.35-3.05,4.08-3.49.71-.18,2.13.78,1.68,2.98,3.91.26,7.64-.69,11.93-2.52,1.14,2.06.85,3.55,1.39,6.37,4.13-5.97,9.98-2.86,12.96-8.15,1.05,1.33,2.12,1.99,3.45,2.21Z"/>
      <path class="cls-1" d="M490.15,1007.87l1.71,49.03.75,19.41c-.69,1.4-3.16,2.1-4.04,2.95l-25.86-.53c-.24-.9-1.21-1.06-2.03-1.07s-1.8.16-1.97,1.24c-1.41-.12-3.72-.39-5.03.13l-.48-31.17.27-40.44,10.27-.06.62,4.53c.16,1.13,2.5,2.27,3.5.99,2.23-2.85,3.63-6.59,8.28-7.81.19,2.11.67,5.09,2.01,5.92,4.89,3.05,7.53-2.43,12-3.13Z"/>
      <path class="cls-1" d="M420.68,1009.18l.3,28.34.16,41.79-36.38-.14-.27-19.71c-.1-8.1,2.73-16.61.57-24.56-1.54-5.68.39-9.79.56-15.58l.42-14.04c3.71.4,5.24,5.15,5.97,8.55,3.65,1.2,3.11-4.05,9.21-6.29,2.15-.79,4.15,1.41,5.67,2.33,2.77-.82,5.07-.91,6.67,2.52,2.96-.57,4.51-2.42,7.11-3.21Z"/>
      <path class="cls-1" d="M352.71,1009.11l.86,23.23-.05,46.93-34.54-.22-.83-16.93.27-24.62.31-27c.56-.27,1.35-1.32,1.95-1.09.96.37,1.57,1.42,1.56,2.88-.36,2.42,2.72,2.26,1.98-.25l8.88-5.76c.3,1.89.98,4.92,2.66,5.38,4.03,1.1,7.72-1.32,11.34-2.97l2.32,5.79.93-4.23c.16-.75,1.38-1.33,2.38-1.15Z"/>
      <path class="cls-1" d="M351.74,190.5c-.03,7.45,1.14,14.88,1.02,23.15l-.8,53.11-.07,107.37-.38,21.62v14.78s-.33,33.68-.33,33.68c-.06,6.06,1.72,11.99-.21,18.13-.63,1.99-3.71,3.99-1.81,6.45l-3.19-3.3-2.04,6.09c-4.04-1.03-5.47-2.93-6.08-6.93-1.58,1.72-1.41,3.29-1.92,6.52l-8.87-4.27c.6-2.85-2.96-2.17-1.78.15l-1.3,3.58c-.48,1.34-2.66,1.58-3.54.08-.47-.8-1.47-1.84-1.61-3.2-1.14-11.7-2.16-23.79-1.05-36.26l-.73-41.42c-.28-15.84,1-30.76.77-46.69l-1.07-75-.63-75.2,3.86,2.24c1.37.79,3.31-1.87,4.64-3.49.17,1.34-.31,3.38,2.36,3.88-.08-11.41,12.24,2.48,24.74-5.07Z"/>
      <path class="cls-1" d="M144.51,396.41c2.93,4.59,3.21,9.6,3.19,15.45l-.15,59.77-.81,77.52c-.2,19.16,1.21,37.27-.3,55.74l.42,29.77c.15,10.71.27,20.45.31,31.21l.05,11.35-7.16-.84-3.14,2.16c-1.93,1.33-2.35-8.33-6.54-6.27-1.3.64-.26,5.49-2.74,6.41-2.17.8-3.13-4.42-4.98-4.05-.92.18-1.98,1.34-3.57,2.99l-2.72-5.86-2.38,3.56c-.79,1.19-2.93.38-3.8.8,1.12-2.5-.75-5.4-.69-8.07l.54-25.68-1.08-63.39.05-32.44,1.01-44.04.21-51.8-1.14-42.77,1.7-10.2c.51-1.93,4.93-4.4,7.1-4.09,3.39.49,2.55,4.88,1.71,6.71,3.75-.51,3.51-3.38,4.64-3.92,1.42-.67,4.56-.05,5.21.85-.57,1.09-1.25,2.6-1.04,3.5.31,1.35,2.21,1.36,2.56.07.13-.47.59-2.07,1.04-2.29l12.53-2.16Z"/>
      <path class="cls-1" d="M214.38,398.84l-.7,68.85-.29,66.39.96,55.71c.09,5.42.96,9.9.67,14.95l-1.06,18.22.54,48.22c-2.19,1.82-4.2,3.46-6.8,3.19,2.5-2.68-.05-4.77-1.78-2.96-.06,1.66-1.13,2.96-1.73,2.98s-1.45-1.8-1.9-3.12l-10.06,5.97c-1.45-1.88.93-4.81.98-6.13-4.28-3.01-6.03,8.29-12.1,5.14l-.43-24.13-.02-27.78c0-4.27.89-8.11-.17-11.7,1.49.4,2.56-.26,2.45-1.92-.07-1.21-1.17-1.35-1.34-1.99l-.97-3.86c-2.17-15-.12-30.07-.12-45.56l.02-48.02.32-42.29.66-24.77,1.2-45.39,7.34-.74c1.31-.13,3.16-2.62,4.78-1.54,1,.67,1.73,1.73,2.64,3.44l2.25-3.52c5.45-.44,10.1.12,14.67,2.36Z"/>
      <path class="cls-1" d="M78.96,1004.79c1.13-.56,2.95.11,2.94,1.56l-.26,33.76-1.23,38.86-35.03.42-.14-29.29-.64-43.82c1.67-.64,2.24-1.64,3.08-2.66.02,1.97,1.53,4.73,2.52,4.39,12.91-6.54,16.14,6.93,23.48,1.12-.25,2.45-.66,4.19,1.84,5.58-1.3-5.72.75-7.42,3.44-9.91Z"/>
      <path class="cls-1" d="M8.4,1011.42l.73,9.25-1.13,55.66c-.54.71-1.21,1.68-1.36,2.6l-3.81.02c.35-.71-.02-2.33-.79-2.29l-2.88.16c-1.61.09-3.04-.62-4.64-.35-.8.13-1.29,1.48-.87,2.48l-3.79-.02c.31-.93-.01-2.24-.73-2.52-1.09-.42-2.69-.12-3.15.6-.26.41-.15,1.52-.09,1.96h-2.52c.49-2.04-.6-2.69-2.03-2.75-2.03-.09-3.06.53-3.69,2.04l-.89-.46c.2-1.21-1.08-1.79-1.31-.23l-1.29-.03.59-43.9.97-27.32c1.18-.15,2.82-.43,4.3,0,1,.29,1.85,1.93,2.64,4.3,1.49-2.11,5.13-4.51,8.16-3.37l2.46,4.31c.66,1.16,4.32.05,6.99-1.02,0,1.93-.7,3.72,1.08,5.37.74-3.96.8-6.58,4.29-8.83.48,2.09,1.18,3.39,2.76,4.36Z"/>
      <path class="cls-1" d="M79.06.68l-.31,45.69-.61,17.07-6.46-.25c.17-2.34,1-3.56,1.85-4.74-4.18-1.55-2.76,3.22-6.05,5.82-1,.79-3.94-.79-5.17-.46-3.56.97-5.39.4-8.3-1.18-2-.59-5.97,2.85-8.9.69,1.57-20.66.65-41.5-.88-62.39l34.84-.25Z"/>
      <path class="cls-1" d="M79.77,607.29l1.07,26.05.08,40.56-.71,59.16.19,19.43-.44,29.11-.31,26.31.18,20.88-.4,39.08c-.03,3.2-1.06,5.28-.14,8.1-1.27.98-1.75,2.58-2.04,2.3-.97-.92-1.21-2-1.43-3.35.67-1.8-2.02-2.84-1.88-.08l-19.32.14c-.32,3.79-4.68,1.7-2.65-.9,1.01-3.07-2.88-2.75-2.02-.02.05,2-.07,3.35-.64,4.54-.48,1.01-2.47,1.44-4.22,1.16l-1.7-21.83-.44-18.62v-31.75s-.41-57.45-.41-57.45l-.19-34.19,1.18-39.59c.39-13.18.79-26.46.4-40.41l-.77-27.29,1.15-6.42c2.78-1.3,4.96,2.35,7.11,2.99,5.94,1.76,11.77-1.64,17.39-2.42,1.1.63,2.5,2.32,3.51,2.31,1.49,0,3.08-.48,4.75-1.99,1.22,1.31,1.51,2.81,2.72,4.17Z"/>
      <path class="cls-1" d="M78.94,193.16l1.19,8.82c2.9,21.44,2.11,42.63,1.41,63.6l-1.24,37.54-.26,94.31c-.07,23.38-1.83,46.91-.56,70.27-1.87,3.38-4.3,3.55-8,2.88l-4.47,1.91c-1.39.59-2.93-2.3-3.65-5.35-1.73,2.65-3.39,4.16-5.68,4.4-2.68.28-4.79-1.02-5.57-4.57-4.9,4.28-2.46,10.86-7.99,9.82-1.26-11.87.08-23.9-.52-36.48-.71-14.83-.5-28.71.02-42.93l.74-20.5-1.46-27.33.63-85.55.42-51.67,1.35-18.33c2.61.22,4.23,2.68,7.01,2.13,1.45-1.24,3.76-2.3,5.34-1.88,1,.27,2.04,2.03,2.54,3.99,1.29-.46,1.92-2.56,2.63-3.41,5.63-2.02,10.67-2.1,16.13-1.68Z"/>
      <path class="cls-1" d="M214.21,804.17l.38,14.78.45,28.13-.07,31.08-.15,50.57.29,81.39-.25,28.7.65,39.99-18.42-.91c-2.61-.13-5.77-.73-7.87,1.18-1.78-.93-4.49-.09-6.41-.1l-1.27-37.57-1.18-35.01.46-16.85-1.09-61.13.37-33.37-.37-20.58.62-27.44,1.11-24.5c.33-7.27,1.7-12.8,1.24-19.49.93-.14,2.64-1.02,3.41-.72.91.35,1.54,1.86,2.59,3.47,1-1.77,1.13-4.22,3.26-5.93,3.21,2.61,2.78,6.18,4.29,8.79,1.52-2.55,2.05-3.93,3.4-5.02,1.17-.94,3.11.94,4.19,2.08l10.39-1.53Z"/>
      <path class="cls-1" d="M283.95,1.37l-.97,57.11-.32,73.49.42,41.51c-.81,6.3-2.24,12.74.64,17.97l-1.1,28.63c-.36,9.31-.95,17.95.29,27.27l-.45,16.17c-.76-.98-.48-2.64-2.54-3.45.43,8.62-5.38,1.19-13.78,9.29l-.75-6.36-10.01,1.22c-2.77.34-5.06,2.81-7.98,2.44-.05-8.92-1.87-17.38.51-27.24l-.29-17.99,1.36-28.46c.23-4.78-1.1-9.16-1.11-14.48l-.22-93.07c-.02-9.34.62-17.62.53-26.15l-.43-58.58,36.21.69Z"/>
      <path class="cls-1" d="M282.64,801.69l1.34,10.37-1.33,60.03,1.26,63.04.43,40.86-.19,31.73.51,69.73-35.85.6-.18-66.46-.8-20.71.12-37.47,1.31-20.82-.78-41.51,1.48-6.35-1.53-9.35.17-15.38-.74-15.44c-.4-8.44-1.04-16.12-1.19-24.73l2.19-14.34c1.29,1.13,1.42,2.41,1.89,4.04l6.93-9.3c2.23,2.64,4.31,3.08,7.34,2.6,2.01-.32,2.51-2.62,3.91-5.03,1.13,2.76,1.41,5.02,2.64,6.56,3.13,3.91,6.7-1.18,11.08-2.68Z"/>
      <path class="cls-1" d="M282.66,398.53l.38,44.37-.59,27.38.24,38.66c.05,7.47.12,14.01.22,21.37l.39,26.64-.89,43.8.49,20.94-.26,55.89-5.44,1.65-2.42-5.49c-5.21.65-8.57,3.32-13.03,6.82-1.94-2.81-1.54-5.1-1.29-8.46l-7.6,5.43c-.7-2.55-2.29-3.88-4.21-3.61,0-3.66-.41-7.95-.54-12.07-.48-14.85-.43-28.96.1-43.71l-.76-13.43-.24-43.45-.67-66.5.47-25.94.14-18.24-1.84-47.63,2.73-5.63c1.15.57,3.21,1.9,3.93,1.14l3.51-3.73c1.36-1.45,3.44,3.5,2.02,5.49-.51,2.59,1.95,3,2.51.85.3-2.05,2.14-3.3,3.37-2.91.73.23,1.07,3.34,1.73,2.99l3.99-2.12c.54-.29,1.74.9,2.55,2.22,1.87-2.58,4.76-4.83,7.79-5.75.36,1.75,1.61,3.49,3.22,3Z"/>
    </g>
    <g>
      <path class="cls-1" d="M827.19,606.06l-.17,57.08c-.01,4.78-.04,10.44.9,14.17l-1,6.49c1.89,19.31.63,37.79.28,57.05l-.82,45.2.59,21.78-1.39,39.29.04,29.74c-1.14.07-2.79.12-3.89-.65-1.38-.97-1.39-2.65-1.79-4.53-1.32,5.16-5.98,4.84-9.69,6.66l-4.46,2.18c-1.24.61-3.41-5.57-12.6-3.46-.07-1.76-.96-4.03-2.15-5.79,1.42-6.77.53-13.24.6-20.32l.41-45.39c-1.79-25.65.55-51.22.65-77.56l.2-51.72-1.11-54.55c0-6.55.22-12.34,1.4-17.97,5.87-1.98,11.56,2.12,18.38-1.78,1.42,1.72,1.7,3.14,2.52,5.99l4.84-4.31c.46,2.05.45,3.26,1.98,5.36,1.71-2.17,3.78-3.27,6.27-2.97Z"/>
      <path class="cls-1" d="M758.09,604.93c0,4.59,1.5,9.71,1.32,15.5l-1.65,53.16.33,24.58c-1.71,24.89-.08,48.86.05,73.72l.18,31.95-.1,31.58-.03,45.43c-1.55-.04-2.63,1.01-3.21,3.47-.21.91-3.18.78-3.5-.53-.91-3.65-2.68-4.81-6.01-5.35-2.02-.32-4.05,1.21-5.64,3.49l-2.92-1.71c-.46-.27-1.25,1.87-3.37,1.39-.15-4.07,1.49-8.61-.63-12.71-1.57,3.64-1.24,7.39-3.78,9.08-1.73,1.15-5.19,4.13-7.08,1.78-.61-1.67-.37-4.43.05-5.48.46-1.14,1.5-2.8,1.52-5.08l.21-31.15c-1.19-17.95-1.54-35.05-.84-53.17l1.29-33.68-1.27-49.2c-.33-12.71.94-24.97-.7-37.55-1.56-11.96-.27-23.1,1.38-34.92l-.25-22.22c-.02-1.76.93-3.17,2.56-4.64.85-.77,2.93,1.96,4.06,1.91,3.88-.17,7.52,1.03,10.45,3.04,5.24-2.22,11.12-4.12,17.58-2.68Z"/>
      <path class="cls-1" d="M758.59,195.38c.87,21.82,2.06,43.57.32,66.13l.56,7.69c-.9,14.48-1.38,28.91-1.13,44.21.38,23.12.09,45.44-.95,68.52l.36,18.21,1.03,56.96c.1,5.43-.75,9.8-1.03,14.29-5.72-2.78-10.23,3.73-16.27-3.49-1.76,1.83-2.75,3.64-4.77,3.74.39-2.74,1.51-4.33.09-4.3-1.38.03-2.35,1.26-1.76,2.85.35.96-.23,2.26-.67,2.22-3.23-.24-3.47-5.6-6.48-4.29-.27.66-.36,2.96-1.4,3.31-.84.28-1.88-.94-2.28-1.44l-.11-10.19c-1.55-8.33-.05-16.32-.68-24.62-1.21-15.88-.5-30.82-.53-46.69l-.09-53.1c-.02-11.04.35-21.32.21-32.42l-.89-68.57c-.14-11.09.6-21.43-.2-32.42-.15-2.03,1.51-3.38,2.76-3.8l11.84-3.93c.98-.32,2.71,1.33,3.49,2.34,3.36-1.98,6.12-.2,9.16-.1,3.26.11,6.31-1.78,9.41-1.11Z"/>
      <path class="cls-1" d="M827.78,194.3l.49,20.64.35,49.52-.36,51.53-1.37,63.42.26,19.34-.72,49.54.72,21.99c-2.08-.39-2.99,1.8-3.35,3.27-2.86-.11-6.16-.57-8.9-1.56l-.12-3.22c-.02-.45-.86-.96-1.43-.95-.69.02-.65,2.81-1.31,3.15-3.32,1.71-8.37.88-11.23-2.44-2.94,2.4-3.89,5.43-5.26,8.84l-2.89-.7,1.2-27.82-.26-51.55.27-43.76.2-52.36.21-36.61-.19-41.88c-.04-8.86-.08-17.82,1.89-25.64,3.12-2.46,6.86,1.65,9.23,1.48,2.68-.19,6.44-3.47,9.86.06l2.88-3.62c1-1.26,2.8.41,4.32,1.14,1.28-.09,3.4-2.29,5.51-1.81Z"/>
      <path class="cls-1" d="M965.71.55c1.94,20.37,1.25,40.46,1.34,60.42l.29,61.93-1.19,40.21.47,30.83-.86,55.91-.03,18.36c-2.56-.1-4.58-.84-7.05-2.98-1.5,3.85-4.57,5.02-9.13,3.64-1.46-.44-.79-4.1.43-5.95-3.44,2.22-5.94,3.84-10.56,5.23-.84-2.63-.16-4.87-2.23-7.41-2.15,2.47-1.72,4.7-2.97,7.49-2.56-2.64-5.32-5-8.51-5.02,3.28-20.25,3.32-40.26,3.24-61.2l-.09-23.33-.04-28.27c-.03-18.83,1.34-37.13-.39-56.04l.6-20.61-.94-50.31,1.23-22.87h36.41Z"/>
      <path class="cls-1" d="M554.98,2.39c-.14,21.89-.41,43.57.94,65.13l.65,82.56-.21,44.06c-.11,22.6.43,45.14-.95,68.32l.74,7c-3.33,1.62-6.15,1.05-8.33-2.58-1.29-.95-4.82,1.83-6.34,1.7l-12.35-1.06c-2.8-.24-5.09-1.78-7.69-1.86l-.64-19.59c-.26-8.54.06-16.19.09-24.82l.41-130.62c.09-27.8-1.28-54.13-3.23-81.71l.18-6.48,36.74-.06Z"/>
      <path class="cls-1" d="M1032.79.71c1.11,5.79.39,11.33.31,17.32l-.54,44.25-.97,37.33.52,40.88-.57,35.6-.85,16.73.31,15.67c-.99,19.39-1.19,38.22-.6,57.09-.8.32-2.64.42-2.91-.38l-1.4-4.1c-2.1.97-2.09,2.99-2.51,5.09-3.24.2-4.98,2.33-7.3,3.23-.81-.59-2.45-2.95-3.46-2.79-1.01.15-2.33,1.33-3.68,2.88-2.5-3.23-5.22-4.94-8.5-3.71-2.7-5.16-2.32-10.96-2.62-17.24,1.41-18.67-.61-36.67-.76-54.58l-.32-39.97-.95-58.95.7-21.13c.15-4.53,1.14-8.03,1.13-11.92l-.09-35c-.02-9.04,1.23-17.64.35-26.56l34.71.27Z"/>
      <path class="cls-1" d="M623.51,1.84l.49,63.16.29,66.98-.56,63.41-.53,37.66c-.17,11.85.22,22.85-1.53,33.85-1.6.1-3.08.08-3.41-.59l-1.79-3.69-2.15,6.75c-.89,2.79-4.76-1.73-5.92-3.04-2.18-2.46-6.3.44-8.54,1.32l-4.03-1.83c-1.45-.66-3.93,1.18-5.05,2.53-1.62-2.08-1.87-5.03-1.53-8.64,2.05-22.27,1.95-44.25,1.03-65.93l-1.26-29.56c-1.15-27-1.65-53.77.25-80.62.56-7.94,1.33-14.2,1.21-21.49l-.76-59.92,33.79-.35Z"/>
      <path class="cls-1" d="M690.74,1.74c1.19,11.38.98,22.64,1.09,34.41l.24,27.4.82,36.64c.36,16.01.27,31.28-.16,47.37l-1.25,46.3-1.66,48.22c-.29,8.49-2.09,16.01-2.21,23.67-2.5,1.16-4.67-.49-7.16-.24l-10.06,1.03c-3.06.31-4.53-2.99-5.92-5.29-1.75,2.09-1.32,3.65-1.94,4.89-.67,1.35-2.44,2.06-4.27,1.93l-1.42-29.83,1.05-43.15-.38-38.45-.16-45.42c-.06-17.03,1.97-33.51.78-49.85-1.44-19.67-.7-39.41-.82-59.44l33.44-.18Z"/>
      <path class="cls-1" d="M827.06,1.37c.95,20.68-.39,42.45-.1,63.38-4.4.31-7.32-3.25-7.93-7.39-3.86-1.32-1.2,4.83-4.36,5.11-1.17.1-2.99-.98-3.89-3.25-1.39,3.35-4.23,5.51-8,6.47-1-1.58-1.59-2.51-2.93-3.66-1.83,2.14-3.95,2.87-6.35,2.38l-1.08-33.7.8-29.34h33.85Z"/>
      <path class="cls-1" d="M756.95,1.5l.58,28.21c.27,12.63-.42,24.48-.4,36.37l-6.77-.41c.11-2.38.76-4.66-.75-6.51-.72,2.66-.7,4.99-1.75,6.08-1.29,1.33-4.06,1.17-5.77.17-11.27-6.59-16.79,2.06-18.99-4.49,1.8-8.37.2-16.98.08-26.08-.15-11.35.05-22.04-.99-33.13l34.77-.22Z"/>
      <path class="cls-1" d="M965.43,805.38l1.46,68.1-1.91,104.38c-.19,10.25.32,19.26.24,28.59l-.93,72.38-36.32.04-.77-29.67-1.07-24.83c-.79-18.34-1.15-35.94-1.72-53.79-.64-19.88,1.31-38.87,2.33-58.7l-.39-28.53-1.08-35.04c-.44-14.27-1.92-27.94.25-41.61.78-.48,1.5-2.87,3.27-1.91.04.73.55,3.02,1.16,3.18.85.22,2.35-3.05,4.08-3.49.71-.18,2.13.78,1.68,2.98,3.91.26,7.64-.69,11.93-2.52,1.14,2.06.85,3.55,1.39,6.37,4.13-5.97,9.98-2.86,12.96-8.15,1.05,1.33,2.12,1.99,3.45,2.21Z"/>
      <path class="cls-1" d="M625.14,809.4l-.31,6.7c-.51,10.85.48,21.24.1,32.29l-.91,26.21,1.62,85.12-1.08,49.35-.59,32.21,1.32,31.24c.17,4-.69,6.73-4.14,7.89l-32.35-.1c-2.34-5.74-.03-11.82-.03-18.17l.03-53.19.46-20.52-.73-33.8.63-20.93.58-56.52-.96-32.7-.85-31.15c-.06-2.33,1.52-4.2,2-5.41,2.15.38,4.24-1.41,6.49-1.8,3.14-.55,4.64,3.27,4.41,6.31,2.56-1.38,3.74-2.61,5.36-2.79,1.2-.14,2.6.73,3.69,2.29,1.59-1.89,2.85-3.53,5.85-4.08.32,2.65-.06,3.97,1.77,6.4,1.25-4.1,3.98-5.3,7.62-4.85Z"/>
      <path class="cls-1" d="M692.32,808.08l.89,15.72.09,34.92-.15,18.18c-1.73,29.07-1.67,58.16-1.49,87.88l-.68,18.34v28.04s.18,35.42.18,35.42l-.45,33.45-33.18.1-.03-29.69c0-13.98-1.88-27.02-.58-40.47l-.84-42.11,1.78-35.29c.68-13.5,1.96-26.48.82-40.13l-1.29-15.36-.8-28.84.78-34.69,1.22-7.82c.81-.12,2.36-.1,2.9.46.93.97.99,2.8,1.57,5.27l10.12-8.75,3.38,8.78,8.54-6.05c.81-.58,1.8,3.5,2.77,3.34l4.45-.7Z"/>
      <path class="cls-1" d="M556.58,808.1l-.85,70.98.88,62.58-.75,71.02-.58,31.32-1.94,35.01-12.8-.17c-1.71-.02-3.2.26-3.9,1.61l-9.03-.46-6.59-1.14-.34-12.83c1.76-18.44,1.51-35.94,1.37-54.45l-.69-90.61c-.17-22.88,1.01-44.52-.64-67.24-1.08-14.81.76-29.05,3.35-42.87,1.54-1.26,2.64-2.72,4.95-3.78,9.59,5.35,11.19,5.18,20.19,2.71,2.34-.64,4.11-4.08,7.36-1.67Z"/>
      <path class="cls-1" d="M962.23,396.41c2.93,4.59,3.21,9.6,3.19,15.45l-.15,59.77-.81,77.52c-.2,19.16,1.21,37.27-.3,55.74l.42,29.77c.15,10.71.27,20.45.31,31.21l.05,11.35-7.16-.84-3.14,2.16c-1.93,1.33-2.35-8.33-6.54-6.27-1.3.64-.26,5.49-2.74,6.41-2.17.8-3.13-4.42-4.98-4.05-.92.18-1.98,1.34-3.57,2.99l-2.72-5.86-2.38,3.56c-.79,1.19-2.93.38-3.8.8,1.12-2.5-.75-5.4-.69-8.07l.54-25.68-1.08-63.39.05-32.44,1.01-44.04.21-51.8-1.14-42.77,1.7-10.2c.51-1.93,4.93-4.4,7.1-4.09,3.39.49,2.55,4.88,1.71,6.71,3.75-.51,3.51-3.38,4.64-3.92,1.42-.67,4.56-.05,5.21.85-.57,1.09-1.25,2.6-1.04,3.5.31,1.35,2.21,1.36,2.56.07.13-.47.59-2.07,1.04-2.29l12.53-2.16Z"/>
      <path class="cls-1" d="M1032.1,398.84l-.7,68.85-.29,66.39.96,55.71c.09,5.42.96,9.9.67,14.95l-1.06,18.22.54,48.22c-2.19,1.82-4.2,3.46-6.8,3.19,2.5-2.68-.05-4.77-1.78-2.96-.06,1.66-1.13,2.96-1.73,2.98s-1.45-1.8-1.9-3.12l-10.06,5.97c-1.45-1.88.93-4.81.98-6.13-4.28-3.01-6.03,8.29-12.1,5.14l-.43-24.13-.02-27.78c0-4.27.89-8.11-.17-11.7,1.49.4,2.56-.26,2.45-1.92-.07-1.21-1.17-1.35-1.34-1.99l-.97-3.86c-2.17-15-.12-30.07-.12-45.56l.02-48.02.32-42.29.66-24.77,1.2-45.39,7.34-.74c1.31-.13,3.16-2.62,4.78-1.54,1,.67,1.73,1.73,2.64,3.44l2.25-3.52c5.45-.44,10.1.12,14.67,2.36Z"/>
      <path class="cls-1" d="M896.68,1004.79c1.13-.56,2.95.11,2.94,1.56l-.26,33.76-1.23,38.86-35.03.42-.14-29.29-.64-43.82c1.67-.64,2.24-1.64,3.08-2.66.02,1.97,1.53,4.73,2.52,4.39,12.91-6.54,16.14,6.93,23.48,1.12-.25,2.45-.66,4.19,1.84,5.58-1.3-5.72.75-7.42,3.44-9.91Z"/>
      <path class="cls-1" d="M826.12,1011.42l.73,9.25-1.13,55.66c-.54.71-1.21,1.68-1.36,2.6l-3.81.02c.35-.71-.02-2.33-.79-2.29l-2.88.16c-1.61.09-3.04-.62-4.64-.35-.8.13-1.29,1.48-.87,2.48l-3.79-.02c.31-.93-.01-2.24-.73-2.52-1.09-.42-2.69-.12-3.15.6-.26.41-.15,1.52-.09,1.96h-2.52c.49-2.04-.6-2.69-2.03-2.75-2.03-.09-3.06.53-3.69,2.04l-.89-.46c.2-1.21-1.08-1.79-1.31-.23l-1.29-.03.59-43.9.97-27.32c1.18-.15,2.82-.43,4.3,0,1,.29,1.85,1.93,2.64,4.3,1.49-2.11,5.13-4.51,8.16-3.37l2.46,4.31c.66,1.16,4.32.05,6.99-1.02,0,1.93-.7,3.72,1.08,5.37.74-3.96.8-6.58,4.29-8.83.48,2.09,1.18,3.39,2.76,4.36Z"/>
      <path class="cls-1" d="M896.78.68l-.31,45.69-.61,17.07-6.46-.25c.17-2.34,1-3.56,1.85-4.74-4.18-1.55-2.76,3.22-6.05,5.82-1,.79-3.94-.79-5.17-.46-3.56.97-5.39.4-8.3-1.18-2-.59-5.97,2.85-8.9.69,1.57-20.66.65-41.5-.88-62.39l34.84-.25Z"/>
      <path class="cls-1" d="M897.49,607.29l1.07,26.05.08,40.56-.71,59.16.19,19.43-.44,29.11-.31,26.31.18,20.88-.4,39.08c-.03,3.2-1.06,5.28-.14,8.1-1.27.98-1.75,2.58-2.04,2.3-.97-.92-1.21-2-1.43-3.35.67-1.8-2.02-2.84-1.88-.08l-19.32.14c-.32,3.79-4.68,1.7-2.65-.9,1.01-3.07-2.88-2.75-2.02-.02.05,2-.07,3.35-.64,4.54-.48,1.01-2.47,1.44-4.22,1.16l-1.7-21.83-.44-18.62v-31.75s-.41-57.45-.41-57.45l-.19-34.19,1.18-39.59c.39-13.18.79-26.46.4-40.41l-.77-27.29,1.15-6.42c2.78-1.3,4.96,2.35,7.11,2.99,5.94,1.76,11.77-1.64,17.39-2.42,1.1.63,2.5,2.32,3.51,2.31,1.49,0,3.08-.48,4.75-1.99,1.22,1.31,1.51,2.81,2.72,4.17Z"/>
      <path class="cls-1" d="M896.65,193.16l1.19,8.82c2.9,21.44,2.11,42.63,1.41,63.6l-1.24,37.54-.26,94.31c-.07,23.38-1.83,46.91-.56,70.27-1.87,3.38-4.3,3.55-8,2.88l-4.47,1.91c-1.39.59-2.93-2.3-3.65-5.35-1.73,2.65-3.39,4.16-5.68,4.4-2.68.28-4.79-1.02-5.57-4.57-4.9,4.28-2.46,10.86-7.99,9.82-1.26-11.87.08-23.9-.52-36.48-.71-14.83-.5-28.71.02-42.93l.74-20.5-1.46-27.33.63-85.55.42-51.67,1.35-18.33c2.61.22,4.23,2.68,7.01,2.13,1.45-1.24,3.76-2.3,5.34-1.88,1,.27,2.04,2.03,2.54,3.99,1.29-.46,1.92-2.56,2.63-3.41,5.63-2.02,10.67-2.1,16.13-1.68Z"/>
      <path class="cls-1" d="M756.85,1006.48l1.07,44.01-1.11,29.41-34.6.04.56-36.25.7-34.7c2.27-2.8,7.34-5.52,10.8-4.79l1.31,4.35c.2.68,2.65-.17,3.68-.12.55,1.91.11,3.82,1.67,5.98,1.01-2.61,2.16-4.99,6.24-5.61,1.32-.2,2.15,2.12,2.6,4.42.82-4.02,3.26-6.13,7.09-6.73Z"/>
      <path class="cls-1" d="M553.7,400.04l1.85,9.92.43,23.9c.22,12.55-.78,24.56.52,36.37,1.49,13.56-.43,27.05-.57,41.42-.3,29.12.63,57.43-1.52,86.37l.28,10.07v17.52s.32,53.01.32,53.01c-1.03.19-2.24.19-2.97-.32-.67-.48-1.43-1.67-1.54-3.46-.87-2.69-3.86-1.37-2.84,1.52.28,3.56-4.14,3.64-3.41-.15,1.14-2.81-2.8-3.92-2.48-.62.22,1.62-.2,3.27-.82,3.83-.98.9-2.89.55-3.23-1.65-.15-1-.98-2.67-1.63-2.93-2.1-.83-4.58,4.38-6.45,3.68-.86-.32-1.25-2.43-.57-4.43-3.48-.18-3.71,8.41-7.05,8.31-1.31-.04-2.2-2.32-2.19-3.71l-.25-20.48c-2.28-23.11,1.34-45.63,1.33-68.86l-.03-62.23.43-54.41-2.03-47.15c-.38-8.95-.3-17.12,1.77-25.29,10.65-.89,9.03,4.47,11.23,3.76,2.65-.85,4.05-6.24,7.78-5.24,1.44.39,1.1,3.81,3,5.44-.05-3.34.92-8.28,3.92-8.14,1.01.05,1.69,3.45,2.66,3.74,1.03.3,2.88.46,4.08.19Z"/>
      <path class="cls-1" d="M622.72,399.88l1.02,70.25-.27,36.32.25,54.33-1.09,46.63.03,56.98.42,11.77c-3.68.24-5.29.43-9.08,3.35-.61-2.76.37-4.52-2.37-6.98l-2.19,6.95-5.02-7.8c-2.13,4.47-5.52,5.39-9.04,3.65-.48,1.45-.95,2.21-1.5,2.96-.48.67-1.51.85-2.83.38.07-6.4-1.04-12.26-.98-19.56l.36-50.31c-1.43-11.59.03-22.7.18-35.11l.32-25.75c.17-13.31-1.13-25.69.16-38.93l-.98-36.25c.68-20.51.33-40.98-.83-62.18l1.24-11.57c1.61-.41,3.8-1.5,4.62-.77,1.35,1.19.79,4.08,2.94,6.33.64-1.38,1.73-6.14,3.18-5.68,8.83,2.82,10.53-4.59,21.47.99Z"/>
      <path class="cls-1" d="M688.59,397.21c.15,6.41,1.71,12.61,1.86,19.89l1.09,55.8-.43,80.11,1.31,51.67c.18,7.13-.82,14.25-.84,22.24l-.03,18.37-.72,31.06-5.57,1.58-1.78-6.14-5.87,4.19c-.94.67-2.5.95-3.55.21-.55-.38-.67-1.12-.6-2.64-5.02,1.27-9.86,2.48-14.79,2.41.23-3.25,1.47-5.24.39-9.4-2.19-8.44-.26-17.87-.13-26.7l.46-32.67-.61-32.14.15-59.57c.04-14.72-.3-28.55-1.44-42.51l.2-21-1.12-42.33c.27-2.56,2.76-5.81,3.83-7.5,1.76-1.46,5.8.19,8.5.44l3.62-2.2c.99-.6,2.75,1.31,3.29,3.81,1.01-2.5,4.11-1.79,5.65-2.12,1.79-2.19,3.34-5.52,7.14-4.83Z"/>
      <path class="cls-1" d="M1031.93,804.17l.38,14.78.45,28.13-.07,31.08-.15,50.57.29,81.39-.25,28.7.65,39.99-18.42-.91c-2.61-.13-5.77-.73-7.87,1.18-1.78-.93-4.49-.09-6.41-.1l-1.27-37.57-1.18-35.01.46-16.85-1.09-61.13.37-33.37-.37-20.58.62-27.44,1.11-24.5c.33-7.27,1.7-12.8,1.24-19.49.93-.14,2.64-1.02,3.41-.72.91.35,1.54,1.86,2.59,3.47,1-1.77,1.13-4.22,3.26-5.93,3.21,2.61,2.78,6.18,4.29,8.79,1.52-2.55,2.05-3.93,3.4-5.02,1.17-.94,3.11.94,4.19,2.08l10.39-1.53Z"/>
      <path class="cls-1" d="M1101.67,1.37l-.97,57.11-.32,73.49.42,41.51c-.81,6.3-2.24,12.74.64,17.97l-1.1,28.63c-.36,9.31-.95,17.95.29,27.27l-.45,16.17c-.76-.98-.48-2.64-2.54-3.45.43,8.62-5.38,1.19-13.78,9.29l-.75-6.36-10.01,1.22c-2.77.34-5.06,2.81-7.98,2.44-.05-8.92-1.87-17.38.51-27.24l-.29-17.99,1.36-28.46c.23-4.78-1.1-9.16-1.11-14.48l-.22-93.07c-.02-9.34.62-17.62.53-26.15l-.43-58.58,36.21.69Z"/>
      <path class="cls-1" d="M1100.35,801.69l1.34,10.37-1.33,60.03,1.26,63.04.43,40.86-.19,31.73.51,69.73-35.85.6-.18-66.46-.8-20.71.12-37.47,1.31-20.82-.78-41.51,1.48-6.35-1.53-9.35.17-15.38-.74-15.44c-.4-8.44-1.04-16.12-1.19-24.73l2.19-14.34c1.29,1.13,1.42,2.41,1.89,4.04l6.93-9.3c2.23,2.64,4.31,3.08,7.34,2.6,2.01-.32,2.51-2.62,3.91-5.03,1.13,2.76,1.41,5.02,2.64,6.56,3.13,3.91,6.7-1.18,11.08-2.68Z"/>
      <path class="cls-1" d="M1100.37,398.53l.38,44.37-.59,27.38.24,38.66c.05,7.47.12,14.01.22,21.37l.39,26.64-.89,43.8.49,20.94-.26,55.89-5.44,1.65-2.42-5.49c-5.21.65-8.57,3.32-13.03,6.82-1.94-2.81-1.54-5.1-1.29-8.46l-7.6,5.43c-.7-2.55-2.29-3.88-4.21-3.61,0-3.66-.41-7.95-.54-12.07-.48-14.85-.43-28.96.1-43.71l-.76-13.43-.24-43.45-.67-66.5.47-25.94.14-18.24-1.84-47.63,2.73-5.63c1.15.57,3.21,1.9,3.93,1.14l3.51-3.73c1.36-1.45,3.44,3.5,2.02,5.49-.51,2.59,1.95,3,2.51.85.3-2.05,2.14-3.3,3.37-2.91.73.23,1.07,3.34,1.73,2.99l3.99-2.12c.54-.29,1.74.9,2.55,2.22,1.87-2.58,4.76-4.83,7.79-5.75.36,1.75,1.61,3.49,3.22,3Z"/>
    </g>
  </g>
</svg>